<?xml version="1.0" encoding="UTF-8" standalone="no"?>
<svg version="1.1" xmlns="http://www.w3.org/2000/svg" xmlns:xlink="http://www.w3.org/1999/xlink"
     viewBox="0 0 82 41">
<style type="text/css">
	.st0{fill:#2E3192;stroke:#2E3192;stroke-width:0.85;stroke-miterlimit:10;}
	.st1{stroke:#FFFFFF;stroke-width:0.85;stroke-miterlimit:10;}
</style>
    <path class="st0" d="M62.8,40.5c-3.5,0-6.7,0-9.9,0c-0.4,0-1-0.5-1.2-0.8c-3.7-6.4-7.4-12.8-11.1-19.1c-0.2-0.4-0.5-0.7-0.8-1.3
	c-0.9,1.6-1.8,3-2.6,4.5c-0.1,0.3,0.1,0.8,0.3,1.2c2.7,4.8,5.5,9.5,8.2,14.3c0.2,0.4,0.4,0.8,0.7,1.3c-3.5,0-6.9,0-10.3,0
	c-0.3,0-0.6-0.4-0.8-0.7c-1.2-2.1-2.4-4.2-3.8-6.4c-1.3,2.2-2.5,4.2-3.6,6.3c-0.4,0.7-0.8,1-1.6,0.9c-3.1-0.1-6.3,0-9.6,0
	c1-1.8,1.9-3.3,2.8-4.9c2.1-3.6,4.1-7.2,6.2-10.8c0.3-0.5,0.4-0.9,0-1.5c-0.8-1.3-1.6-2.6-2.4-4.2c-1.7,2.9-3.3,5.7-4.9,8.4
	c-2.3,4-4.6,8-6.9,12c-0.4,0.7-0.8,0.9-1.6,0.9c-3.1,0-6.3,0-9.6,0C8.2,27.2,15.8,14,23.5,0.7c2.8,4.8,5.4,9.4,8.2,14.1
	c2.8-4.8,5.4-9.4,8.2-14.1C47.5,14,55.1,27.2,62.8,40.5z"/>
    <path class="st1" d="M56.5,18.7c3.1,0,6.2,0,9.4,0c1.9,0,3.3-1,4.1-2.7c0.8-1.7,0.5-3.3-0.7-4.7c-1-1.2-2.3-1.6-3.8-1.6
	c-4.4,0-8.8,0-13.2,0c-0.9,0-1.4-0.3-1.9-1.1c-1.5-2.7-3-5.3-4.6-8.1c0.6,0,0.9,0,1.3,0c6.1,0,12.2,0,18.3,0c6.6,0,12.1,4.1,13.7,10
	c1.7,6.4-1,12.5-6.9,15.8c-0.2,0.1-0.3,0.2-0.6,0.4c2.6,4.6,5.2,9.1,7.9,13.8c-3.5,0-6.9,0-10.2,0c-0.2,0-0.6-0.2-0.7-0.5
	c-4.1-7-8.1-14.1-12.2-21.1C56.4,18.9,56.4,18.8,56.5,18.7z"/>
</svg>